# xmcd
#
# Track frame offsets:
#	150
#	22520
#	35216
#	57016
#	73643
#	95667
#	112143
#	137896
#	156294
#	176062
#
# Disc length: 2566 seconds
#
# Revision: 0
# Processed by: cddbd v1.5.2PL0 Copyright (c) Steve Scherf et al.
# Submitted via: EZCDAudioConverter 3.0.7.1
#
DISCID=8a0a040a
DTITLE=Mothers FOLLOW Chairs - All night long
DYEAR=2016
DGENRE=Blues
TTITLE0=I'm bad
TTITLE1=Sure had a wondderful time last night
TTITLE2=Never let me go
TTITLE3=Queen bee
TTITLE4=Reverend Lee
TTITLE5=Gin house blues
TTITLE6=Summertime
TTITLE7=Wng dang doodle
TTITLE8=Time will tell
TTITLE9=Cerna Jessie
EXTD=
EXTT0=
EXTT1=
EXTT2=
EXTT3=
EXTT4=
EXTT5=
EXTT6=
EXTT7=
EXTT8=
EXTT9=
PLAYORDER=
